<svg xmlns="http://www.w3.org/2000/svg" version="1.1" xmlns:xlink="http://www.w3.org/1999/xlink" xmlns:svgjs="http://svgjs.dev/svgjs" width="1000" height="1000" viewBox="0 0 1000 1000"><rect width="1000" height="1000" fill="#ffffff"></rect><g transform="matrix(0.7,0,0,0.7,149.57575757575756,428.8574666781149)"><svg viewBox="0 0 396 81" data-background-color="#ffffff" preserveAspectRatio="xMidYMid meet" height="204" width="1000" xmlns="http://www.w3.org/2000/svg" xmlns:xlink="http://www.w3.org/1999/xlink"><g id="tight-bounds" transform="matrix(1,0,0,1,0.2400000000000091,-0.14604202330045268)"><svg viewBox="0 0 395.52 81.2920840466009" height="81.2920840466009" width="395.52"><g><svg viewBox="0 0 520.8607593416764 107.0536423568465" height="81.2920840466009" width="395.52"><g transform="matrix(1,0,0,1,0,14.795402091286313)"><svg viewBox="0 0 395.52 77.46283817427387" height="77.46283817427387" width="395.52"><g id="textblocktransform"><svg viewBox="0 0 395.52 77.46283817427387" height="77.46283817427387" width="395.52" id="textblock"><g><svg viewBox="0 0 395.52 77.46283817427387" height="77.46283817427387" width="395.52"><g transform="matrix(1,0,0,1,0,0)"><svg width="395.52" viewBox="0 -35.04999923706055 180.74000549316406 35.39999771118164" height="77.46283817427387" data-palette-color="#ffffff"><path d="M7.65 0L7.65-30.5 0-30.5 0-35 20.1-35 20.1-30.5 12.2-30.5 12.2 0 7.65 0ZM41.1 0L37.45-10.7Q37.05-10.6 36.3-10.6L36.3-10.6 28.55-10.6 28.55 0 24 0 24-35 36-35Q40.8-35 43.25-31.75 45.7-28.5 45.7-23.5L45.7-23.5Q45.7-21.1 45.47-19.25 45.25-17.4 44.37-15.48 43.5-13.55 41.65-12.2L41.65-12.2 45.75 0 41.1 0ZM35.3-15Q37.9-15 39.12-16.38 40.35-17.75 40.65-19.48 40.95-21.2 40.95-23.5L40.95-23.5Q40.95-27.4 39.32-28.93 37.7-30.45 34.6-30.45L34.6-30.45 28.55-30.45 28.55-15 35.3-15ZM66.25-35.05L70.8-35.05 70.8-9.3Q70.8-4.25 67.72-1.95 64.65 0.35 60.3 0.35L60.3 0.35Q55.95 0.35 52.84-1.95 49.75-4.25 49.75-9.3L49.75-9.3 49.75-35.05 54.3-35.05 54.3-10.6Q54.3-4.05 60.25-4.05L60.25-4.05Q66.25-4.05 66.25-10.6L66.25-10.6 66.25-35.05ZM87.44 0L78.24-35 83.34-35 90.19-8.25 96.94-35 102.14-35 92.99 0 87.44 0ZM110.29 0L110.29-30.6 107.14-30.7 107.14-35 114.89-35 114.89 0 110.29 0ZM122.69 0L122.69-35 139.39-35 139.39-30.5 127.24-30.5 127.24-20.65 135.04-20.65 133.69-16.25 127.24-16.25 127.24-4.1 139.29-4.1 139.29 0 122.69 0ZM167.99 0L163.39-21.95 158.84 0 153.19 0 145.94-35 150.94-35 156.09-9.4 161.44-35 165.34-35 170.69-9.4 175.59-35 180.74-35 173.54 0 167.99 0Z" opacity="1" transform="matrix(1,0,0,1,0,0)" fill="#000000" class="undefined-text-0" data-fill-palette-color="primary" id="text-0"></path></svg></g></svg></g></svg></g></svg></g><g transform="matrix(1,0,0,1,413.80711698482986,0)"><svg viewBox="0 0 107.0536423568465 107.0536423568465" height="107.0536423568465" width="107.0536423568465"><g data-palette-color="#aaaaaa"><rect width="29.261328910871374" height="107.0536423568465" fill="#000000" stroke="transparent" data-fill-palette-color="accent" x="0" fill-opacity="1"></rect><rect width="29.261328910871374" height="107.0536423568465" fill="#000000" stroke="transparent" data-fill-palette-color="accent" x="35.68454745228216" fill-opacity="0.75"></rect><rect width="29.261328910871374" height="107.0536423568465" fill="#000000" stroke="transparent" data-fill-palette-color="accent" x="71.36909490456432" fill-opacity="0.5"></rect></g></svg></g></svg></g><defs></defs></svg><rect width="395.52" height="81.2920840466009" fill="none" stroke="none" visibility="hidden"></rect></g></svg></g></svg>